# xmcd CD Database Entry
#
# Track frame offsets:
# 150
# 4947
# 21877
# 36572
# 59632
# 76002
# 91765
# 100830
# 105622
# 128252
# 141475
# 154315
# 162195
# 204115
# 244845
# 262582
#
# Disc length: 4293 seconds
#
# Revision: 1
# Processed by: cddbd v1.4b41PL1 Copyright (c) Steve Scherf et al.
# Submitted via: tcd 2.0b
#
DISCID=c410c310
DTITLE=Ella Fitzgerald - Newport Jazz Festival - Live At Carnegie Ha
DTITLE=ll
DYEAR=1900
DGENRE=
TTITLE0=Opening Announcement by Eddie Barefield - Let's Get Together
TTITLE1=Stompin' At The Savoy
TTITLE2=A-Tisket A-Tasket
TTITLE3=Indian Summer
TTITLE4=Smooth Sailing
TTITLE5=Eddie Barefield Original
TTITLE6=Band Introductions - Let's Get Together
TTITLE7=Announcement by George Wein
TTITLE8=You Turned The Tables On Me
TTITLE9=Nice Work If You Can Get It
TTITLE10=I've Got A Crush On You
TTITLE11=Introduction of Jazz At Carnegie All-Stars by George Wein
TTITLE12=Somebody Loves Me
TTITLE13=Medley: I Can't Get Started - The Young Man With The Horn - 'Ro
TTITLE13=und Midnight
TTITLE14=Stardust
TTITLE15=Avalon
EXTD=
EXTT0=
EXTT1=
EXTT2=
EXTT3=
EXTT4=
EXTT5=
EXTT6=
EXTT7=
EXTT8=
EXTT9=
EXTT10=
EXTT11=
EXTT12=
EXTT13=
EXTT14=
EXTT15=
PLAYORDER=
